<?xml version="1.0" encoding="UTF-8" standalone="no"?>
<!-- Created with Inkscape (http://www.inkscape.org/) -->

<svg
   xmlns:dc="http://purl.org/dc/elements/1.1/"
   xmlns:cc="http://creativecommons.org/ns#"
   xmlns:rdf="http://www.w3.org/1999/02/22-rdf-syntax-ns#"
   xmlns:svg="http://www.w3.org/2000/svg"
   xmlns="http://www.w3.org/2000/svg"
   xmlns:sodipodi="http://sodipodi.sourceforge.net/DTD/sodipodi-0.dtd"
   xmlns:inkscape="http://www.inkscape.org/namespaces/inkscape"
   width="480"
   height="480"
   id="svg3000"
   version="1.1"
   inkscape:version="0.92.1 r15371"
   sodipodi:docname="logo.svg"
   inkscape:export-filename="D:\DOC\Fotojaba\privateblog\256x256.png"
   inkscape:export-xdpi="51.200001"
   inkscape:export-ydpi="51.200001">
  <defs
     id="defs3002" />
  <sodipodi:namedview
     id="base"
     pagecolor="#000000"
     bordercolor="#666666"
     borderopacity="1.0"
     inkscape:pageopacity="0"
     inkscape:pageshadow="2"
     inkscape:zoom="0.7"
     inkscape:cx="-88.880857"
     inkscape:cy="272.71127"
     inkscape:document-units="px"
     inkscape:current-layer="layer1"
     showgrid="false"
     inkscape:window-width="1024"
     inkscape:window-height="720"
     inkscape:window-x="-4"
     inkscape:window-y="-4"
     inkscape:window-maximized="1"
     fit-margin-top="0"
     fit-margin-left="0"
     fit-margin-right="0"
     fit-margin-bottom="0" />
  <metadata
     id="metadata3005">
    <rdf:RDF>
      <cc:Work
         rdf:about="">
        <dc:format>image/svg+xml</dc:format>
        <dc:type
           rdf:resource="http://purl.org/dc/dcmitype/StillImage" />
        <dc:title></dc:title>
      </cc:Work>
    </rdf:RDF>
  </metadata>
  <g
     inkscape:label="Layer 1"
     inkscape:groupmode="layer"
     id="layer1"
     transform="translate(-128.64935,-605.46027)">
    <g
       id="g19"
       transform="matrix(1.2065218,0,0,1.1620276,13.431107,-179.01739)">
      <path
         inkscape:connector-curvature="0"
         id="path3805"
         d="m 148.69195,827.82229 c -4.11581,-2.85268 -10.82599,-15.87859 -12.73487,-24.72113 -0.69033,-3.19779 -0.94469,-11.74912 -0.47288,-15.89752 1.06998,-9.4081 4.32872,-20.04208 8.34234,-27.2231 14.81444,-26.5053 35.53096,-46.56471 62.07811,-60.10904 11.76273,-6.00135 20.03657,-9.11881 27.79827,-10.47394 8.62597,-1.50604 20.79759,-1.27539 26.36248,0.49954 8.18792,2.61161 15.42438,8.45235 21.42822,17.29523 3.11258,4.58445 3.53947,6.07585 1.95955,6.84582 -0.46076,0.22458 -3.82753,0.6705 -7.52231,0.99632 -11.68284,1.03029 -17.46981,2.19784 -27.6003,5.56852 -19.73085,6.56505 -39.32336,18.88226 -56.69446,35.64211 -19.03158,18.36185 -30.74181,37.30137 -36.9048,59.68786 -2.91271,10.58011 -3.66113,12.64159 -4.58955,12.64159 -0.20044,0 -0.85285,-0.33853 -1.4498,-0.75226 z"
         style="fill:#6c5353;fill-opacity:1;stroke:none;stroke-width:1.06666672" />
      <path
         inkscape:connector-curvature="0"
         id="path3023"
         d="m 441.32324,1082.7271 c -30.33329,-11.8529 -131.39333,-53.7456 -143.41384,-59.4498 -4.41635,-2.0956 -13.16949,-13.2828 -81.86311,-104.62739 -65.59359,-87.22233 -81.36153,-108.86139 -84.09871,-115.41235 -3.24453,-7.76525 -4.25512,-21.64282 -2.31273,-31.75872 4.7413,-24.69258 26.93977,-53.68424 55.51315,-72.50126 28.12828,-18.52393 57.30748,-24.051 76.31132,-14.45477 9.3979,4.74558 12.01663,7.56797 35.19918,37.93661 23.20232,30.39455 121.05471,160.80093 129.88255,173.09249 l 8.85587,12.3306 1.24198,6.78854 c 2.03034,11.09763 18.86987,117.73535 22.6225,143.25875 2.3339,15.874 1.96514,19.4207 -2.4476,23.5409 -1.70269,1.5898 -6.75289,4.0944 -8.03751,3.9862 -0.32776,-0.028 -3.68162,-1.256 -7.45305,-2.7298 z m -37.54019,-34.3629 c 0.64469,-0.7333 1.87742,-2.7048 2.7394,-4.381 4.47927,-8.7103 13.40708,-16.9733 23.609,-21.8511 3.48261,-1.6651 6.52129,-3.5207 6.75262,-4.1236 0.23133,-0.6028 0.0176,-3.9194 -0.47489,-7.3702 -2.35033,-16.46707 -10.85179,-69.3856 -11.94393,-74.34665 l -1.23201,-5.59635 -2.38357,0.35109 c -1.31096,0.19311 -6.11267,1.79328 -10.67046,3.55595 -12.25535,4.73959 -20.28026,6.33506 -32.09407,6.3808 -10.99006,0.0426 -14.13587,-0.47697 -29.94732,-4.9455 -5.99483,-1.69422 -11.11318,-2.86691 -11.3741,-2.606 -0.2609,0.26091 -0.0703,3.50919 0.42352,7.2184 1.85255,13.91418 0.65931,27.21706 -3.61437,40.29501 -2.77397,8.4887 -5.517,13.99997 -11.11642,22.33505 -4.72638,7.0355 -6.74244,10.586 -6.27594,11.0525 0.77708,0.7771 58.36463,25.2329 80.19035,34.0546 3.99268,1.6138 5.97865,1.6076 7.41219,-0.023 v 10e-5 z m -92.11295,-38.1467 c 3.55323,-3.4161 10.06834,-13.10458 13.67085,-20.3295 8.118,-16.28087 10.22158,-37.19921 5.64012,-56.0862 -1.57311,-6.48515 -2.3735,-8.18735 -6.98592,-14.85715 -11.47992,-16.60055 -72.51999,-98.1637 -89.31323,-119.34237 -5.19197,-6.54782 -7.54729,-8.95237 -8.76903,-8.95237 -2.43496,0 -18.31026,16.41805 -23.6608,24.46973 -8.68292,13.06632 -13.3688,26.26234 -14.03714,39.53027 l -0.40298,8 37.33605,49.64571 c 77.33488,102.83218 76.90971,102.30558 81.69903,101.17668 1.04762,-0.247 3.218,-1.7116 4.82305,-3.2548 z m 81.22272,-75.27047 c 12.02228,-2.08768 27.31541,-8.35865 30.96669,-12.69794 1.5372,-1.82688 1.73758,-2.67921 1.34701,-5.72979 -0.25237,-1.97102 -1.28658,-5.13856 -2.29826,-7.03898 -1.01168,-1.90042 -26.52864,-36.18612 -56.70436,-76.19047 l -54.86492,-72.73518 -8.53168,-0.46757 c -9.74566,-0.53409 -23.50189,0.35446 -29.10311,1.87984 -13.87564,3.77878 -40.05631,18.36825 -41.20994,22.96471 -0.53204,2.11983 1.36411,4.85837 33.5013,48.38493 29.6441,40.14991 58.6413,78.58293 65.12716,86.31984 6.50301,7.75735 9.84574,9.77914 22.30371,13.48997 13.24077,3.94401 24.30047,4.45421 39.4664,1.82064 z M 185.14889,843.21345 c 5.56203,-20.79331 17.65959,-39.06871 37.11217,-56.06424 11.52022,-10.06511 19.74181,-15.67717 31.63361,-21.59311 16.65685,-8.28646 26.02058,-10.66432 42.14532,-10.70251 3.06565,-0.007 6.25249,-0.37637 7.08187,-0.82025 1.49071,-0.7978 1.48854,-0.83923 -0.18877,-3.61905 -3.06555,-5.08053 -16.35648,-22.63682 -19.30496,-25.50034 -3.64643,-3.54136 -5.91004,-4.00831 -18.68585,-3.85452 -8.29696,0.0998 -11.74561,0.50249 -17.83626,2.0823 -19.50717,5.05982 -39.3326,17.17228 -56.8304,34.72084 -13.07641,13.11436 -22.27338,27.13407 -26.50669,40.40638 -1.84116,5.77244 -2.25165,8.22517 -3.18776,19.04763 l -0.69198,8 6.62179,8.75196 c 10.27177,13.57616 13.84389,17.64856 15.244,17.37892 0.89563,-0.17248 1.86955,-2.53532 3.39391,-8.23401 z m -28.05736,-36.37307 c 4.18847,-16.72143 11.84366,-31.19647 23.64291,-44.70588 24.10059,-27.59373 55.9848,-45.07739 85.3507,-46.80193 9.76242,-0.57332 9.78696,-0.61107 4.98769,-7.6783 -4.04863,-5.96186 -9.23176,-10.48538 -15.15144,-13.22323 -4.37515,-2.02351 -6.16456,-2.39251 -12.98654,-2.67804 -13.79491,-0.57735 -22.90734,1.72363 -39.32249,9.92933 -20.56434,10.27984 -37.71818,25.30147 -50.31474,44.06062 -2.68994,4.00595 -5.91901,9.55119 -7.1757,12.32278 -5.13081,11.31575 -7.16115,24.03592 -5.39722,33.81377 1.66474,9.22791 9.59052,23.15136 13.17869,23.15136 0.80974,0 1.72647,-2.35512 3.18814,-8.19048 z"
         style="fill:#00ff00;fill-opacity:1;stroke:none;stroke-width:1.06666672" />
      <path
         inkscape:connector-curvature="0"
         id="path3799"
         d="m 303.61773,1013.757 c -4.57444,-3.4755 -14.60118,-16.30229 -65.56863,-83.87893 -48.68153,-64.54579 -50.63932,-67.14512 -50.94507,-67.63894 -0.34407,-0.5557 0.31514,-11.55541 0.89907,-15.00229 1.94964,-11.5082 6.32202,-22.23838 13.38856,-32.85645 5.34105,-8.0254 20.61652,-23.98416 23.6954,-24.75533 0.84292,-0.21114 1.36615,0.16891 3.89493,2.82912 5.91593,6.22336 60.77766,78.56572 87.08482,114.83271 12.44169,17.15211 13.61713,19.05103 15.05973,24.32896 4.32097,15.80886 4.11321,32.51445 -0.60031,48.27174 -3.84798,12.86371 -15.63209,31.29081 -21.96788,34.35161 -2.22568,1.0753 -2.98881,1.0008 -4.94062,-0.4822 z"
         style="fill:#000000;fill-opacity:1;stroke:none;stroke-width:1.06666672" />
      <path
         inkscape:connector-curvature="0"
         id="path3797"
         d="m 366.0609,936.01583 c -4.90885,-0.71344 -9.39688,-1.81443 -15.6715,-3.8445 -11.66642,-3.77452 -13.63708,-5.363 -25.58233,-20.62108 -18.71356,-23.90344 -83.17226,-110.48251 -90.2404,-121.20829 -3.56341,-5.4074 -3.51678,-5.78359 1.18115,-9.52899 8.87572,-7.07612 28.49711,-16.74023 39.12011,-19.26782 6.0159,-1.43138 20.5765,-2.09194 31.84771,-1.44481 l 4.32274,0.2482 27.96852,36.95808 c 33.51275,44.28429 76.12873,100.94685 80.81144,107.44757 1.85493,2.57509 3.73624,5.50111 4.18069,6.50225 1.92673,4.34014 2.34243,8.19677 1.09906,10.1963 -2.70722,4.35365 -17.51754,10.84788 -30.5519,13.39683 -9.04214,1.76825 -20.98021,2.25703 -28.48529,1.16626 z"
         style="fill:#000000;fill-opacity:1;stroke:none;stroke-width:1.06666672" />
      <path
         inkscape:connector-curvature="0"
         id="path3795"
         d="m 399.95287,1049.3074 c -0.37038,-0.062 -1.09769,-0.2422 -1.61624,-0.4002 -2.36549,-0.7206 -42.62635,-17.557 -65.45789,-27.3734 -11.91183,-5.1215 -16.59876,-7.2385 -16.49916,-7.4526 0.037,-0.08 0.0673,-0.3107 0.0673,-0.5134 0,-0.4498 3.18388,-5.7218 7.17937,-11.8879 4.9694,-7.66907 7.17066,-12.17791 9.79756,-20.06834 2.2691,-6.81569 3.34482,-11.65282 4.16481,-18.72774 0.63408,-5.47097 0.58557,-14.63101 -0.11101,-20.95784 -0.30707,-2.78906 -0.5583,-5.80484 -0.5583,-6.70171 v -1.63068 l 1.30285,0.17283 c 0.71657,0.095 4.2622,0.96163 7.87918,1.92573 17.51674,4.66902 18.67367,4.90203 26.10596,5.25768 9.59353,0.45908 17.76604,-0.20908 25.18647,-2.05918 3.69786,-0.92197 6.7645,-1.91862 14.00745,-4.55239 6.10671,-2.2206 9.88521,-3.36901 11.08468,-3.36901 0.71249,0 0.80372,0.27072 1.81556,5.38749 1.82924,9.25032 10.93441,66.21916 12.13975,75.95546 0.62486,5.0474 0.59079,5.504 -0.47094,6.3138 -0.48772,0.372 -3.00301,1.808 -5.5895,3.1909 -7.61647,4.0725 -10.40546,6.0375 -15.16911,10.6872 -3.57762,3.4921 -6.07839,6.6714 -8.3845,10.6594 -3.461,5.9853 -4.15008,6.6011 -6.87434,6.1439 z"
         style="fill:#008000;fill-opacity:1;stroke:none;stroke-width:1.06666672" />
      <path
         inkscape:connector-curvature="0"
         id="path3803"
         d="m 179.68759,849.97709 c -2.06561,-1.85716 -8.96705,-10.50867 -18.14352,-22.7444 l -1.52925,-2.03907 0.66783,-7.38901 c 1.08101,-11.96052 1.62285,-14.87444 4.02443,-21.64228 6.34841,-17.89037 22.19414,-37.47557 42.93087,-53.06221 14.55098,-10.93717 30.9893,-18.58971 45.16838,-21.02726 5.93147,-1.01969 20.56826,-1.19549 24.72325,-0.29695 2.57582,0.55704 4.22935,1.55411 6.47451,3.90408 4.37941,4.58388 18.80256,24.04687 19.82424,26.75137 0.24064,0.63701 0.19642,0.79335 -0.31957,1.12992 -1.08851,0.70997 -3.00401,0.94093 -10.14092,1.22267 -14.63809,0.57787 -21.99575,2.40641 -35.98217,8.94234 -10.64114,4.97268 -19.26333,10.26838 -27.69854,17.01229 -21.29387,17.02435 -34.46754,33.88597 -41.8102,53.51493 -0.65577,1.75304 -1.9224,5.68812 -2.81475,8.74463 -1.78007,6.09713 -2.68136,8.22762 -3.48069,8.22762 -0.27779,0 -1.13004,-0.5619 -1.8939,-1.24867 z"
         style="fill:#008000;fill-opacity:1;stroke:none;stroke-width:1.06666672" />
    </g>
  </g>
</svg>
